<svg id="Layer_1" data-name="Layer 1" xmlns="http://www.w3.org/2000/svg" viewBox="0 0 241.71 94.44"><defs><style>.cls-1{fill:#fff;}</style></defs><title>ExtraLife_white_nav</title><path class="cls-1" d="M180.65,60.79A3,3,0,0,0,179.8,63V80.35a2.93,2.93,0,0,0,3.08,3.1,3.1,3.1,0,0,0,2.26-.86,3,3,0,0,0,.88-2.24V63q0-3.09-3.14-3.09a3,3,0,0,0-2.23.85m-.46-9.54a3.78,3.78,0,0,0,0,5.39,3.81,3.81,0,1,0,2.69-6.52,3.64,3.64,0,0,0-2.69,1.13" transform="translate(-11.29 -6.47)"/><path class="cls-1" d="M48.06,35c-5.78,3.27-11.19,4.66-12.08,3.1s3.1-5.48,8.89-8.75,11.19-4.66,12.07-3.09S53.85,31.75,48.06,35m10.41-9.14c-1.27-2.25-7.58-1.08-14.1,2.6S33.59,37,34.86,39.22s7.59,1.08,14.1-2.6,10.78-8.5,9.51-10.74" transform="translate(-11.29 -6.47)"/><path class="cls-1" d="M38.27,48.05a3.12,3.12,0,0,1,.36-1,3.39,3.39,0,0,1,.7-.87,3.15,3.15,0,0,1,1-.6,3.08,3.08,0,0,1,1.13-.23,3,3,0,0,1,1.08.18,2.72,2.72,0,0,1,.94.59,2.76,2.76,0,0,1,.65,1,2.72,2.72,0,0,1,.18,1.2A3.09,3.09,0,0,1,44,49.43a3.35,3.35,0,0,1-.77,1,3.09,3.09,0,0,1-1.15.67,3.14,3.14,0,0,1-1.27.17A2.86,2.86,0,0,1,39.66,51a2.64,2.64,0,0,1-.86-.73,2.59,2.59,0,0,1-.49-1,2.93,2.93,0,0,1,0-1.14M38,49.32a3.14,3.14,0,0,0,.54,1.17,3.18,3.18,0,0,0,1,.83,3.35,3.35,0,0,0,1.28.39,3.47,3.47,0,0,0,1.45-.18,3.54,3.54,0,0,0,1.3-.76,3.8,3.8,0,0,0,.88-1.16,3.43,3.43,0,0,0,.35-1.36,3.35,3.35,0,0,0-.22-1.36,3,3,0,0,0-.75-1.08,2.94,2.94,0,0,0-1-.65A3.6,3.6,0,0,0,41.48,45a3.84,3.84,0,0,0-1.27.26,3.61,3.61,0,0,0-1.09.69,3.87,3.87,0,0,0-.79,1A3.71,3.71,0,0,0,37.92,48a3.25,3.25,0,0,0,0,1.28m1.21-.94.23.91L38.87,49ZM40.47,46l.57.2-.9.35Zm.91,1.63a.5.5,0,0,1,.16.11.42.42,0,0,1,.11.18.5.5,0,0,1,0,.21.66.66,0,0,1-.06.2.7.7,0,0,1-.13.17,1.18,1.18,0,0,1-.19.11.4.4,0,0,1-.21,0,.42.42,0,0,1-.2,0,.48.48,0,0,1-.16-.12.52.52,0,0,1-.1-.18.71.71,0,0,1,0-.2.67.67,0,0,1,.19-.36.76.76,0,0,1,.19-.12l.21,0a.41.41,0,0,1,.19,0m.84,2.2-.35.63-.64-.29Zm1.27-2.6-.28.63L42.88,47Zm-4.86,2.55a.21.21,0,0,0,0,.07l.06,0,.07,0h.08l1.63-.6L41,51.05a.22.22,0,0,0,0,.08.15.15,0,0,0,.06,0,.11.11,0,0,0,.08,0h.09l1.48-.51.08,0a.2.2,0,0,0,.06-.07.29.29,0,0,0,0-.09.14.14,0,0,0,0-.09l-.57-1.71,1.72-.62.08-.05a.2.2,0,0,0,.06-.07.19.19,0,0,0,0-.08.19.19,0,0,0,0-.08l-.52-1.34,0-.06s0,0-.06,0l-.09,0-.08,0L41.75,47l-.49-1.47a.21.21,0,0,0,0-.06.09.09,0,0,0-.06,0l-.07,0-.08,0-1.3.51s-.05,0-.06,0l0,.06,0,.07a.22.22,0,0,0,0,.08L40,47.63l-1.55.59-.07,0a.18.18,0,0,0-.05.07s0,0,0,.07v.08Zm21.78-7.6a1.1,1.1,0,0,0-.32-.29,1.23,1.23,0,0,0-.42-.14,1,1,0,0,0-.46,0,1.3,1.3,0,0,0-.44.17,1.17,1.17,0,0,0-.52.69,1,1,0,0,0,0,.45,1.15,1.15,0,0,0,.17.41,1,1,0,0,0,.32.3,1.3,1.3,0,0,0,.44.17,1.37,1.37,0,0,0,.49,0,1.49,1.49,0,0,0,.45-.19,1.22,1.22,0,0,0,.32-.32A1.14,1.14,0,0,0,60.6,43a1.31,1.31,0,0,0,0-.44,1,1,0,0,0-.18-.39m5.32-1.11a1.23,1.23,0,0,0-.34-.26,1.12,1.12,0,0,0-.4-.14,1.09,1.09,0,0,0-.44,0,1.34,1.34,0,0,0-.39.16,1,1,0,0,0-.27.28,1,1,0,0,0-.1.78,1.07,1.07,0,0,0,.22.39,1.16,1.16,0,0,0,.34.28,1.24,1.24,0,0,0,.42.15,1.42,1.42,0,0,0,.46,0,1.32,1.32,0,0,0,.4-.18.83.83,0,0,0,.26-.3.81.81,0,0,0,.12-.37,1,1,0,0,0-.06-.41,1.25,1.25,0,0,0-.22-.37m-3.9-.29a1.09,1.09,0,0,0,.4-.16.94.94,0,0,0,.29-.27,1.07,1.07,0,0,0,.14-.35.83.83,0,0,0,0-.38,1.11,1.11,0,0,0-.18-.34,1,1,0,0,0-.31-.24,1.3,1.3,0,0,0-.39-.14,1.19,1.19,0,0,0-.42,0,1.57,1.57,0,0,0-.4.14,1,1,0,0,0-.28.26.89.89,0,0,0-.16.34.81.81,0,0,0,0,.38.87.87,0,0,0,.18.36,1.15,1.15,0,0,0,.71.4,1.14,1.14,0,0,0,.45,0m2.06,3.44a1.28,1.28,0,0,0-.35-.31,1.35,1.35,0,0,0-.44-.15,1.07,1.07,0,0,0-.47,0,1.2,1.2,0,0,0-.43.19,1.16,1.16,0,0,0-.46,1.24,1.17,1.17,0,0,0,.21.45,1.1,1.1,0,0,0,.35.33,1.12,1.12,0,0,0,.46.17,1.21,1.21,0,0,0,.5,0,1.17,1.17,0,0,0,.45-.21,1.24,1.24,0,0,0,.3-.35,1.2,1.2,0,0,0,.15-.45,1.61,1.61,0,0,0,0-.48,1.22,1.22,0,0,0-.23-.42M66.28,42a1.17,1.17,0,0,1-.13.46,1.06,1.06,0,0,1-.33.37,1.41,1.41,0,0,1-.48.22,1.51,1.51,0,0,1-.56,0,1.48,1.48,0,0,1-.51-.18,1.43,1.43,0,0,1-.42-.35,1.26,1.26,0,0,1-.25-.47,1.08,1.08,0,0,1-.05-.5,1.17,1.17,0,0,1,.17-.45,1.18,1.18,0,0,1,.33-.34,1.54,1.54,0,0,1,.47-.19,1.81,1.81,0,0,1,.52,0,1.59,1.59,0,0,1,.9.49,1.53,1.53,0,0,1,.27.44,1.26,1.26,0,0,1,.07.5m-1.83,3.3a1.42,1.42,0,0,1-1.08,1.24,1.55,1.55,0,0,1-1.17-.19,1.49,1.49,0,0,1-.69-.95,1.47,1.47,0,0,1,0-.59,1.42,1.42,0,0,1,.58-.92,1.5,1.5,0,0,1,.53-.23,1.56,1.56,0,0,1,.57,0,1.7,1.7,0,0,1,.53.2,1.32,1.32,0,0,1,.42.36,1.63,1.63,0,0,1,.28.52,1.65,1.65,0,0,1,0,.58m-4-4.68a1.26,1.26,0,0,1-.22-.43,1.24,1.24,0,0,1,0-.47,1,1,0,0,1,.2-.41,1.17,1.17,0,0,1,.35-.31,1.54,1.54,0,0,1,.47-.18,1.54,1.54,0,0,1,1,.16,1.35,1.35,0,0,1,.37.3,1,1,0,0,1,.23.41.91.91,0,0,1,0,.46,1,1,0,0,1-.17.42,1.1,1.1,0,0,1-.34.34,1.44,1.44,0,0,1-.49.2,2,2,0,0,1-.54,0,1.31,1.31,0,0,1-.49-.18,1.18,1.18,0,0,1-.38-.32m.37,2.55a1.48,1.48,0,0,1-.21.5,1.64,1.64,0,0,1-.39.4,1.5,1.5,0,0,1-.55.23,1.52,1.52,0,0,1-.6,0,1.47,1.47,0,0,1-.52-.19,1.32,1.32,0,0,1-.4-.38,1.17,1.17,0,0,1-.2-.5,1.09,1.09,0,0,1,0-.54,1.35,1.35,0,0,1,.24-.48,1.57,1.57,0,0,1,.4-.37,1.58,1.58,0,0,1,1.09-.22,1.66,1.66,0,0,1,.5.18,1.38,1.38,0,0,1,.38.34,1.19,1.19,0,0,1,.23.48,1.35,1.35,0,0,1,0,.53m-3.29,8c0,.1,0,.2.06.3a2.3,2.3,0,0,0,4.42-1.28,1.77,1.77,0,0,0-.18-.45,2.3,2.3,0,0,1,.32.67,2.36,2.36,0,0,1-4.53,1.32,2.83,2.83,0,0,1-.09-.56M59.3,49a1.78,1.78,0,0,1,2,.67,2.32,2.32,0,0,0-1.81-.18A2.35,2.35,0,0,0,58,50.59,1.8,1.8,0,0,1,59.3,49m-2.67,2.47a18.88,18.88,0,0,0-6,1.74l-.15-.27a21.8,21.8,0,0,1,3-1.17,21.23,21.23,0,0,1,3.15-.61c0,.1,0,.2,0,.31m-3.79-7.38c.5-.1,1-.18,1.5-.23a.31.31,0,0,1,.35.27c0,.08,0,.16,0,.24a.31.31,0,0,1-.28.33c-.47.06-1,.13-1.42.22a.31.31,0,0,1-.37-.23c0-.08,0-.16,0-.24a.31.31,0,0,1,.25-.36M48.37,56.94a2.35,2.35,0,0,1-2.92-1.6,3,3,0,0,1-.1-.65,2.33,2.33,0,0,0,.08.38,2.3,2.3,0,0,0,4.42-1.28,2.35,2.35,0,0,0-.14-.37A3,3,0,0,1,50,54a2.36,2.36,0,0,1-1.61,2.92m-1.28-4.42A1.79,1.79,0,0,1,49,53.2a2.41,2.41,0,0,0-3.24.94,1.79,1.79,0,0,1,1.29-1.62m-1-4.09a4.75,4.75,0,0,1-.46,1.83,5,5,0,0,1-1.19,1.57,5.13,5.13,0,0,1-1.78,1l-.16,0a4.85,4.85,0,0,1-1.81.17,4.41,4.41,0,0,1-1.71-.55,3.93,3.93,0,0,1-1.26-1.14A4.08,4.08,0,0,1,37,49.84a4.26,4.26,0,0,1,0-1.67,4.79,4.79,0,0,1,.57-1.51,3.74,3.74,0,0,1,.35-.53,3.74,3.74,0,0,0-.27.42A4.47,4.47,0,0,0,37.09,48a4.16,4.16,0,0,0,0,1.61,4,4,0,0,0,.66,1.51A3.86,3.86,0,0,0,39,52.24a4.17,4.17,0,0,0,1.65.54,4.61,4.61,0,0,0,1.89-.21,4.87,4.87,0,0,0,2.84-2.51,4.28,4.28,0,0,0,.43-1.78,4.1,4.1,0,0,0-.33-1.75,3.81,3.81,0,0,0-1-1.37,4,4,0,0,0-1.37-.8,4.94,4.94,0,0,0-.55-.15,4.35,4.35,0,0,1,.71.18,4,4,0,0,1,2.44,2.23,4.14,4.14,0,0,1,.34,1.81m-7-2.59a3.76,3.76,0,0,1,1.12-.69,3.36,3.36,0,0,1,1.29-.27,3.54,3.54,0,0,1,1.26.2,3.34,3.34,0,0,1,1.08.66,3.27,3.27,0,0,1,1,2.51,3.58,3.58,0,0,1-.36,1.4,3.9,3.9,0,0,1-.9,1.2,3.81,3.81,0,0,1-1.34.78,3.68,3.68,0,0,1-1.49.18,3.45,3.45,0,0,1-1.31-.4,3.4,3.4,0,0,1-1-.86,3.14,3.14,0,0,1-.55-1.2,3.41,3.41,0,0,1,0-1.31,3.67,3.67,0,0,1,.43-1.2,3.83,3.83,0,0,1,.8-1m11.1-.11c-.45.17-.88.36-1.32.57a.3.3,0,0,1-.41-.13,2.12,2.12,0,0,1-.11-.21.31.31,0,0,1,.15-.42,14.28,14.28,0,0,1,1.39-.61.31.31,0,0,1,.4.18l.09.22a.32.32,0,0,1-.19.4M78.45,26.9a5,5,0,0,0,2.76-2.51,28.86,28.86,0,0,1-3.34.47,17.79,17.79,0,0,0,3.95-2.31,23.88,23.88,0,0,1-3.5,1.62,5.32,5.32,0,0,0,2.28-3.45,25.77,25.77,0,0,1-2.77,1.2,18.49,18.49,0,0,0,3.28-3.54,24,24,0,0,1-3.64,3.15,6.35,6.35,0,0,0,1.82-4.71,22.33,22.33,0,0,1-2.34,2,18.12,18.12,0,0,0,2.37-4.75,22.6,22.6,0,0,1-2.77,4.34,8.37,8.37,0,0,0,.81-5.52,27.4,27.4,0,0,1-1.67,2.71A18.17,18.17,0,0,0,77,10.76a22.61,22.61,0,0,1-2,4.91,10.9,10.9,0,0,0-.13-6.31s-.37,1.47-1.1,3.44a18.1,18.1,0,0,0-.24-5.91,23,23,0,0,1-.32,5.67,13.08,13.08,0,0,0-1.14-6.09A53.61,53.61,0,0,1,71,13.63a10.34,10.34,0,0,0-.59-1.75,13.47,13.47,0,0,1-1.83,6.84,3.29,3.29,0,0,0-.62,1.83,6.17,6.17,0,0,1,.1-2.1c-1.08,3-1,3,1.28,6a4.41,4.41,0,0,1,.91,3.35c-.39,1.92-2.09,3.37-2.65,4.1a1.63,1.63,0,0,0-.32.68,4.87,4.87,0,0,1,.48-2.69,11.38,11.38,0,0,0-1.93,7.52A6,6,0,0,0,60.2,36c-.18,0-.36.12-.54.19a.31.31,0,0,0-.17.17,7.25,7.25,0,0,1,6.18,1.59l.19.14,0,.19c-2.6-2.07-5.64-2.66-8.74-.65l-.54.36a28.88,28.88,0,0,1-.35,8.93A7.88,7.88,0,0,1,54.9,50c1.47-2.06,1.94-6.39,1.4-11.83-.69.4-1.74.76-6.18,2s-5.52,1.54-6.32,1.58c2.45,4.88,5.18,8.28,7.52,9.24a8,8,0,0,1-2.82-1.91,28.92,28.92,0,0,1-5.07-7.35l-.65,0c-3.8,0-6.07,2.21-7.12,5.49l-.08-.18c.05-.16.11-.32.17-.48A7.28,7.28,0,0,1,40.12,42a.33.33,0,0,0-.24,0,4.43,4.43,0,0,0-.55.13,6,6,0,0,0-4,4.41,11.44,11.44,0,0,0-5.75-5.52,4.89,4.89,0,0,1,1.84,2,1.68,1.68,0,0,0-.64-.41c-.86-.31-3.07-.62-4.42-2a4.31,4.31,0,0,1-1-3.32c.29-3.74.37-3.81-2.13-5.73a6.3,6.3,0,0,1,1.22,1.72A3.24,3.24,0,0,0,22.87,32a13.52,13.52,0,0,1-5.2-4.8A10.12,10.12,0,0,0,18.1,29a54.19,54.19,0,0,1-4.81-5.43,12.74,12.74,0,0,0,2.3,5.76,22.46,22.46,0,0,1-3.31-4.62,17.72,17.72,0,0,0,3,5.13c-1.68-1.28-2.78-2.32-2.78-2.32a11,11,0,0,0,3.27,5.4,22.74,22.74,0,0,1-4.29-3.1,18.07,18.07,0,0,0,3.74,3.41,27,27,0,0,1-2.87-1.39A8.47,8.47,0,0,0,16,36a22.59,22.59,0,0,1-4.66-2.19,18.22,18.22,0,0,0,4.55,2.75,24.55,24.55,0,0,1-3.08-.47,6.42,6.42,0,0,0,4.07,3,22.77,22.77,0,0,1-4.76-.71,18.06,18.06,0,0,0,4.66,1.23,23.73,23.73,0,0,1-3,.47,5.3,5.3,0,0,0,3.77,1.7,22.91,22.91,0,0,1-3.83.5,18.15,18.15,0,0,0,4.58-.16,28.56,28.56,0,0,1-3.07,1.39,5.05,5.05,0,0,0,3.67.65,24.18,24.18,0,0,1-3.74,1.22,18.14,18.14,0,0,0,4.56-1,31.1,31.1,0,0,1-2.63,1.87,5.53,5.53,0,0,0,4.19-.45A22.61,22.61,0,0,1,17.44,48a18,18,0,0,0,3.8-1.63,26.9,26.9,0,0,1-2,1.87,6.13,6.13,0,0,0,3.83-1,18.93,18.93,0,0,1-3,2.55A14.31,14.31,0,0,0,23.6,47.4a21.16,21.16,0,0,1-1.77,2.24A6.17,6.17,0,0,0,25.63,48a14.28,14.28,0,0,1-2.77,2.71,11.62,11.62,0,0,0,3.08-2.47,13.76,13.76,0,0,1-1.28,2.21A5.37,5.37,0,0,0,28,48.69a15.22,15.22,0,0,1-1.67,2.43,11.74,11.74,0,0,0,2.15-2.58A10.23,10.23,0,0,1,27.73,51a4,4,0,0,0,3-2.12,15.75,15.75,0,0,1-.87,2.55,12.08,12.08,0,0,0,1.21-2.61,9,9,0,0,1-.1,2.47c1.61-.48,2.24-1.37,2.3-2.48a15.58,15.58,0,0,1,.15,3,11.87,11.87,0,0,0,.2-2.69,12,12,0,0,1,.63,2.38,2.11,2.11,0,0,0,.78-.8c0,.64-.08,1.31-.07,2a20.46,20.46,0,0,0,.73,2.1,1.73,1.73,0,0,1,0,.22,1.21,1.21,0,0,0,0-.18,24.94,24.94,0,0,0,2.65,4.74c1.29,1.89,2.22,3.26,1.64,5.62a3.63,3.63,0,0,0,2.92.92c1-.21,1.49-1.53,1.88-3.07a18.55,18.55,0,0,1-.09-3.14,15.69,15.69,0,0,1,.32-3,3.47,3.47,0,0,1-.67-1.26,3.38,3.38,0,0,1,2.23-4.23,3.32,3.32,0,0,1,3.3.9,3.27,3.27,0,0,0-5.29,3.38,3.19,3.19,0,0,0,.64,1.19,19,19,0,0,0-.35,5.84c.25-1.06.45-2.18.69-3.13,0-.12.07-.25.1-.36a.09.09,0,0,0,0-.05l0-.09,0-.05s0-.06,0-.09a.08.08,0,0,0,0-.05s0-.1,0-.15l0,0a.19.19,0,0,0,0-.07l0-.06s0,0,0-.06l0-.06a.14.14,0,0,1,0-.06l0-.07,0-.06,0-.09,0,0,0-.06,0,0,0-.06s0,0,0,0l0-.06,0,0,.09-.1A3.27,3.27,0,0,0,51,55.08c.53-.23,1.07-.45,1.6-.64h0l.38-.14h0l.35-.12h0l.33-.11.06,0,.33-.1.33-.1h.06l.35-.09h0c.77-.19,1.63-.36,2.5-.5a3.27,3.27,0,0,0,5.27-.31l.15,0h0l.08,0h0l.06,0,0,0,.06,0,0,0,.07,0h0l.24.16,0,0,.07,0,0,0q.18.13.36.3h0l.09.08h0a3.74,3.74,0,0,1,.31.27h0c.7.66,1.48,1.51,2.25,2.26a19.38,19.38,0,0,0-3.42-4.74,3.21,3.21,0,0,0-.1-1.34,3.27,3.27,0,0,0-6.16-.35,3.29,3.29,0,0,1,2.21-2.21,3.43,3.43,0,0,1,4.25,3.82,16.33,16.33,0,0,1,1.88,2.37,18.21,18.21,0,0,1,1.59,2.69C68,57.66,69.1,58.5,70,58.16a3.68,3.68,0,0,0,2-2.36c-1.75-1.67-1.7-3.33-1.63-5.62a22.17,22.17,0,0,0-.8-7.59c-.32-.51-.65-1-1-1.47a2.28,2.28,0,0,0,.78.11,10.38,10.38,0,0,1-.74-2.35,11.77,11.77,0,0,0,1.6,2.18,15,15,0,0,1-1.45-2.59c.64.91,1.65,1.33,3.26.86a9.14,9.14,0,0,1-1.4-2,12,12,0,0,0,2.42,1.56A15.53,15.53,0,0,1,71,37.17a4,4,0,0,0,3.65.2,10.56,10.56,0,0,1-2-1.63,11.66,11.66,0,0,0,3.2,1,15.28,15.28,0,0,1-2.7-1.15,5.4,5.4,0,0,0,3.81-.3,14.24,14.24,0,0,1-2.27-1.18,11.57,11.57,0,0,0,3.93.44,14.61,14.61,0,0,1-3.79-.81,6.15,6.15,0,0,0,4.07-.68,20.15,20.15,0,0,1-2.69-.94,14.57,14.57,0,0,0,4.21.2,17.79,17.79,0,0,1-3.86-.57,6,6,0,0,0,3.76-1.2s-1.1-.15-2.65-.53a17.76,17.76,0,0,0,4.08-.66,22.14,22.14,0,0,1-4.41.17,5.59,5.59,0,0,0,3.79-1.86,29.46,29.46,0,0,1-3.22-.18,18.12,18.12,0,0,0,4.39-1.57,23.41,23.41,0,0,1-3.82,1M35,53.28c0,.55.06,1.11.12,1.67a20,20,0,0,0,.66,3.34h0a.49.49,0,0,0,0,.11,2.33,2.33,0,0,0,.07.25s0,.08,0,.13A2.25,2.25,0,0,1,36,59l.05.12a2.41,2.41,0,0,0,.08.25,1.17,1.17,0,0,1,0,.11l.09.25,0,.1c0,.08.07.16.1.25l0,.09c0,.08.07.17.11.25a.3.3,0,0,0,0,.08c0,.09.07.17.11.25a.43.43,0,0,0,0,.07l.12.26,0,0c0,.09.09.18.14.27a.08.08,0,0,0,0,0l.14.27,0,0c.05.09.1.18.16.27h0c0,.1.11.19.16.28h0A11.09,11.09,0,0,0,39.83,65c1.2-4-3.1-4.46-4.87-11.73M69.91,43.13c2.39,7.1-1,9.76,2.16,12.52.9-2.63.7-6.87-1.37-11-.25-.51-.51-1-.79-1.48" transform="translate(-11.29 -6.47)"/><path class="cls-1" d="M125.6,87.53h.11c.3,0,.47.13.5.4,0,.1,0,.16.15.16a10.47,10.47,0,0,1,3,1.15,1.49,1.49,0,0,1,.95,1.66l0,.07a3.46,3.46,0,0,1-1.6,2.14,13.59,13.59,0,0,1-2.22,1.12l-1,.34a9.77,9.77,0,0,1,0,2.14l0,.16c-.1.47-.29.76-.58.86-.5,0-.69-.63-.55-1.88,0-.61-.06-.92-.16-.92a.93.93,0,0,0-.36-.12c-.07-.06-.11-.22-.11-.48l0-.06v0a3.32,3.32,0,0,1,.5-.41h0a15.52,15.52,0,0,1,.25-3.43l.14-1c-.55-.23-.81-.39-.79-.49v-.1c.2-.39.32-.58.38-.58l.7-.2a.94.94,0,0,1,.8-.5m.15,1.71h0a18.87,18.87,0,0,0-.38,4.2,13.59,13.59,0,0,0,2.1-.85,3.18,3.18,0,0,0,1.42-1.39A.6.6,0,0,0,129,91h0c.13-.66-.93-1.23-3.17-1.71Z" transform="translate(-11.29 -6.47)"/><path class="cls-1" d="M132.39,86.5h.08c.23,0,.33.1.29.29a7.48,7.48,0,0,1-.15,1.43l-.78,3.28-.06.34A24.34,24.34,0,0,0,131.4,96l0,.23q-.09.42-.3.48a2.29,2.29,0,0,0-.58.13,1.59,1.59,0,0,0-.32-.27,32.3,32.3,0,0,1,.49-5l.13-.62a17.49,17.49,0,0,1,.78-2.76s-.05-.16,0-.47l-.13-.11c.08,0,.2-.27.37-.8a1.16,1.16,0,0,1,.61-.24" transform="translate(-11.29 -6.47)"/><path class="cls-1" d="M136.63,91.55h.09c.25,0,.37.19.37.59a12.48,12.48,0,0,0,0,2,3.72,3.72,0,0,0,.48,1.6,1.22,1.22,0,0,1,.18.7l0,.11c0,.14-.13.21-.32.21a1.18,1.18,0,0,1-.38.16,1.45,1.45,0,0,1-.77-.79,16.9,16.9,0,0,1-.42-1.68l-.09-.14a17.06,17.06,0,0,1-1.47,1.56,2.34,2.34,0,0,1-1.5.6.75.75,0,0,1-.83-.75l0-.23v-.07a5.44,5.44,0,0,1,1.84-2.51A10.84,10.84,0,0,1,136,91.78a1.25,1.25,0,0,1,.65-.23m-3.31,3.69v0h0c.3,0,.65-.26,1.05-.76a3.7,3.7,0,0,0,1.14-1.56h0a5.59,5.59,0,0,0-1.37.95,2.59,2.59,0,0,0-.8,1.36" transform="translate(-11.29 -6.47)"/><path class="cls-1" d="M142.86,90.48a.4.4,0,0,1,.38.22c-.32,2.25-.57,3.84-.76,4.76l0,.14-.32,2.55,0,.29a3,3,0,0,1-1.91,2.36,2.11,2.11,0,0,1-.65.11,2.61,2.61,0,0,1-2.11-1.36,1,1,0,0,1-.16-.7.84.84,0,0,1,.51-.22,1.53,1.53,0,0,1,.67.43s.14.06.32.07l.78.53a1.05,1.05,0,0,0,.3.07h0c.38,0,.7-.34,1-1a9.44,9.44,0,0,0,.38-1.45,16.72,16.72,0,0,0,.3-3.28,14.73,14.73,0,0,0-1.23,1.36c-.48.41-.79.61-.95.61a2,2,0,0,1-.8.13h-.08c-.19,0-.33-.25-.4-.75a3.75,3.75,0,0,1,.08-.88,11.13,11.13,0,0,1,1-2.63c.21-.29.39-.44.57-.44h.12a.63.63,0,0,1,.44.24v.05a11.92,11.92,0,0,1-.73,1.85,3.91,3.91,0,0,0-.3.93l0,.3h.06c.16,0,.44-.19.83-.57.05,0,.15-.13.3-.4a9.34,9.34,0,0,0,1.46-2.27A2.12,2.12,0,0,0,142,91v0a2.29,2.29,0,0,0,.45-.43Z" transform="translate(-11.29 -6.47)"/><path class="cls-1" d="M149.93,87.54h.13c.79,0,1.35.5,1.66,1.51a2.69,2.69,0,0,1,.07,1,7.13,7.13,0,0,1-.54.52.61.61,0,0,1-.27.11h0c-.18,0-.36-.31-.52-1a1.07,1.07,0,0,0-.48-.86l-.08,0a2,2,0,0,0-1,.52,4.55,4.55,0,0,0-1.22,2.47l0,.18a5.34,5.34,0,0,0,.59,4,1,1,0,0,0,.8.45c.69,0,1.48-.82,2.39-2.46a12.64,12.64,0,0,0,.64-1.5c-.36,0-1.12.19-2.27.41v0c0-.12-.07-.21-.29-.29a.28.28,0,0,1-.12-.23v0c.09-.46.75-.77,2-1a15.41,15.41,0,0,1,1.83-.13c.18,0,.27,0,.26.11a4.82,4.82,0,0,1-.05.61,12.65,12.65,0,0,1-1.88,3.75,4.71,4.71,0,0,1-2.12,1.72,1.4,1.4,0,0,1-.54.1h0a2.37,2.37,0,0,1-1.79-.86,6.26,6.26,0,0,1-.76-4.49l0-.2a6.79,6.79,0,0,1,1.93-3.69,2.75,2.75,0,0,1,1.71-.72" transform="translate(-11.29 -6.47)"/><path class="cls-1" d="M157.45,91.55h.09c.24,0,.37.19.37.59a12.48,12.48,0,0,0,0,2,3.72,3.72,0,0,0,.48,1.6,1.12,1.12,0,0,1,.17.7l0,.11c0,.14-.13.21-.32.21a1.18,1.18,0,0,1-.38.16,1.42,1.42,0,0,1-.77-.79,16.9,16.9,0,0,1-.42-1.68l-.09-.14a17.06,17.06,0,0,1-1.47,1.56,2.36,2.36,0,0,1-1.5.6.75.75,0,0,1-.83-.75l0-.23v-.07a5.37,5.37,0,0,1,1.84-2.51,11,11,0,0,1,2.16-1.13,1.28,1.28,0,0,1,.66-.23m-3.31,3.69v0h0c.3,0,.65-.26,1.05-.76a3.7,3.7,0,0,0,1.14-1.56h-.05a5.4,5.4,0,0,0-1.37.95,2.59,2.59,0,0,0-.8,1.36" transform="translate(-11.29 -6.47)"/><path class="cls-1" d="M163.74,92.35h.09c.4.06.61.15.62.24a8.17,8.17,0,0,1,.37,1.74,18.17,18.17,0,0,0,.36,1.92s-.1.13-.27.25q0,.09-.09.09a.94.94,0,0,1-1-1,5.83,5.83,0,0,0-.24-1.4h0c-.88,1.58-1.45,2.37-1.7,2.37h-.17c-.46,0-.64-.47-.54-1.4.08-.74.08-1.11,0-1.11a5.08,5.08,0,0,0-.79,1.29c-.37.79-.73,1.18-1.08,1.18a.72.72,0,0,1-.44-.18l0-.09,0-.08-.09-.13a2.35,2.35,0,0,0,.25-.7l.2-1.2.08-.29c.13,0,.22-.11.27-.32l0-.11s.11-.07.32-.14c0-.07.08-.11.11-.11l.23.09a3.84,3.84,0,0,0,.77-.64,1.1,1.1,0,0,1,.31-.18c.6,0,.93.38,1,1.14l0,.19h0a8.7,8.7,0,0,0,.57-1,1.44,1.44,0,0,1,.35-.35h.16Z" transform="translate(-11.29 -6.47)"/><path class="cls-1" d="M167.9,91.66c.64,0,1.09.41,1.33,1.22a2.83,2.83,0,0,1,0,.59c-.12.6-.7,1.09-1.73,1.45v0a.89.89,0,0,0,.87.63,3.3,3.3,0,0,0,2-1.31c.46-.42.8-.63,1-.63h0l0,0,0,.18,0,.07a.07.07,0,0,0,.06.07c.07,0,.14-.06.2-.2h0v0a2.67,2.67,0,0,1-.76,1,2,2,0,0,0-.2.36c-.17,0-.27.09-.29.19a3.64,3.64,0,0,1-1.77,1.17,3.06,3.06,0,0,1-.55.07H168c-.9,0-1.67-.63-2.3-1.9v0l.19-1.41,0-.14a1.32,1.32,0,0,1,.81-1.12,3,3,0,0,1,1.19-.34M167,93.42a.72.72,0,0,0,.17.75,1.7,1.7,0,0,0,.71-.32,1.19,1.19,0,0,0,.14-.36.59.59,0,0,0-.35-.75l-.14,0c-.19,0-.29.06-.31.18a1.2,1.2,0,0,0-.22.52" transform="translate(-11.29 -6.47)"/><path class="cls-1" d="M173.48,92h.15c.45,0,.67.1.68.32a1.64,1.64,0,0,1,.05.39,1.16,1.16,0,0,1-.63.31c-.92.13-1.39.25-1.41.35s.39.38.9.53a9.61,9.61,0,0,1,1.89.6.83.83,0,0,1,.4.9c-.12.62-.77,1-1.94,1.24a5.42,5.42,0,0,1-.94.08c-1.13-.07-1.67-.2-1.64-.38a.54.54,0,0,1-.09-.43l0-.1a1,1,0,0,1,.5-.62,3.5,3.5,0,0,0,1.53.45,1.47,1.47,0,0,0,.93-.31h0a6.71,6.71,0,0,0-1.79-.59c-.88-.28-1.28-.61-1.21-1l0-.07a2,2,0,0,1,1.44-1.4,2.93,2.93,0,0,1,1.14-.27" transform="translate(-11.29 -6.47)"/><path class="cls-1" d="M176.85,95.33h.07q.51.12.45.45v0c-.07.34-.36.62-.9.82l-.19,0c-.24,0-.38-.13-.43-.41v-.12l0-.08a.91.91,0,0,1,.57-.64Z" transform="translate(-11.29 -6.47)"/><path class="cls-1" d="M188.11,86.37c.37,0,.55.12.56.37a1.24,1.24,0,0,1,0,.36l-.18,1.31c-.08.39-.31,1.7-.7,3.94,0,.32,0,.49,0,.49,1.2.15,1.81.41,1.83.77s-.28.45-.66.45h-.11a3.64,3.64,0,0,1-1.2-.13v0l0,0s0,.2-.07.61c0,.23,0,0-.29,2l0,.18v0a1.13,1.13,0,0,1-.75.25c-.35,0-.51-.08-.48-.22a17.87,17.87,0,0,1,.24-2,3.26,3.26,0,0,0,0-.75l-.37,0-1.91.07c-.12.89-.45,2.39-.5,2.63-.11.66-.27,1-.5,1l-.55,0-.22,0c-.17,0,.1-1.37.31-2.24a4,4,0,0,0,.13-1.34l-.14,0-.18,0c-.57,0-.9-.1-1-.29a.24.24,0,0,1,0-.18c.09-.42.21-.62.36-.62h.85c.19,0,.3,0,.31-.07.18-1.61.4-3.31.68-5.11v0c.23-.85.46-1.27.69-1.27l.23,0c.38,0,.55.08.53.2a.43.43,0,0,1,.06.36l-.19.79c-.14.67-.36,2.2-.67,4.56l-.05.49h.12a12.74,12.74,0,0,0,2.19-.16q.67-4.23.84-5.52l0-.15a.89.89,0,0,1,.64-.8Z" transform="translate(-11.29 -6.47)"/><path class="cls-1" d="M191.33,91.66c.65,0,1.09.41,1.33,1.22a1.89,1.89,0,0,1,0,.59c-.12.6-.7,1.09-1.73,1.45v0a.89.89,0,0,0,.87.63c.56,0,1.24-.44,2-1.31.46-.42.8-.63,1-.63h0l0,0,0,.18,0,.07s0,.06.06.07.14-.06.2-.2h0v0a2.72,2.72,0,0,1-.75,1,1.54,1.54,0,0,0-.2.36c-.18,0-.28.09-.3.19a3.61,3.61,0,0,1-1.76,1.17,3.17,3.17,0,0,1-.55.07h-.19c-.9,0-1.67-.63-2.3-1.9v0l.18-1.41,0-.14a1.34,1.34,0,0,1,.81-1.12,3,3,0,0,1,1.19-.34m-.91,1.76a.7.7,0,0,0,.16.75,1.7,1.7,0,0,0,.71-.32,1.26,1.26,0,0,0,.15-.36.6.6,0,0,0-.35-.75l-.15,0c-.18,0-.29.06-.31.18a1.09,1.09,0,0,0-.21.52" transform="translate(-11.29 -6.47)"/><path class="cls-1" d="M198.26,91.55h.09c.25,0,.37.19.37.59a12.48,12.48,0,0,0,0,2,3.72,3.72,0,0,0,.48,1.6,1.12,1.12,0,0,1,.17.7l0,.11c0,.14-.13.21-.32.21a1.18,1.18,0,0,1-.38.16,1.41,1.41,0,0,1-.76-.79,16.07,16.07,0,0,1-.43-1.68l-.08-.14a20.39,20.39,0,0,1-1.47,1.56,2.36,2.36,0,0,1-1.51.6.74.74,0,0,1-.82-.75l0-.23v-.07a5.37,5.37,0,0,1,1.84-2.51,10.49,10.49,0,0,1,2.16-1.13,1.28,1.28,0,0,1,.65-.23M195,95.24l0,0h0c.3,0,.64-.26,1-.76a3.9,3.9,0,0,0,1.14-1.56h-.06a5.42,5.42,0,0,0-1.36.95,2.68,2.68,0,0,0-.81,1.36" transform="translate(-11.29 -6.47)"/><path class="cls-1" d="M202.12,86.5h.08c.23,0,.33.1.29.29a7.48,7.48,0,0,1-.15,1.43l-.78,3.28-.07.34a25.61,25.61,0,0,0-.36,4.11l0,.23q-.08.42-.3.48a2.38,2.38,0,0,0-.58.13,1.48,1.48,0,0,0-.31-.27,32.3,32.3,0,0,1,.49-5l.12-.62a18.71,18.71,0,0,1,.79-2.76s0-.16,0-.47l-.13-.11c.07,0,.2-.27.36-.8a1.22,1.22,0,0,1,.62-.24" transform="translate(-11.29 -6.47)"/><path class="cls-1" d="M207.46,88.21h.16c.32,0,.46.09.43.27l-.07.34c0,.14-.21.68-.56,1.62l-.09.39a23,23,0,0,0,3.32-1.59l.87-.56c.58,0,.85.19.8.41l0,.11c-.05.27-.63.66-1.72,1.17-.59.32-1.52.8-2.79,1.41a3.1,3.1,0,0,0-.7.27l-.09.27c-.06.28.12.54.53.75A17.55,17.55,0,0,0,210,95a2.8,2.8,0,0,0,1.36.61c.6,0,.89.06.87.16s.12.22.08.43a2.89,2.89,0,0,1-1.08.25H211a5.58,5.58,0,0,1-3.22-1.63,4.93,4.93,0,0,0-.94-.59l0,.09,0,.09c0,.2-.1.85-.17,2l-.08.41A.74.74,0,0,1,206,97h-.11c-.27,0-.41-.1-.4-.21l.14-2.37c.12-.75.12-1.17,0-1.24a4.31,4.31,0,0,0-.67-.6.59.59,0,0,1-.13-.49l0-.14c0-.11.33-.28.94-.48l.36-.22.05-.36.08-.41a10.47,10.47,0,0,1,.78-2.19,1,1,0,0,1,.36-.09" transform="translate(-11.29 -6.47)"/><path class="cls-1" d="M214.94,89.6h.11c.32,0,.49.08.53.24l0,.19v0c-.06.24-.34.4-.86.48h-.13c-.36,0-.52-.14-.49-.32v-.07l0-.11a.84.84,0,0,1,.8-.43m-.32,1.83q.38,0,.33.18a12.72,12.72,0,0,1-.27,2.51l-.1.52-.42,1.93a1.39,1.39,0,0,1-.48.17l-.17.14h0c-.11,0-.19-.08-.25-.24,0,.08,0,.11-.06.11-.15-.16-.17-.5-.07-1l.6-2.2c0-.32.11-.76.23-1.33s.32-.75.68-.75" transform="translate(-11.29 -6.47)"/><path class="cls-1" d="M220.17,88.87h.21c0,.09,0,.17.19.23s.09.55-.06,1.42l-.33,1.57,0,.2a6,6,0,0,0,.33,3,1,1,0,0,1,.25.61v.12a2.17,2.17,0,0,1-.43.54H220c-.43,0-.68-.27-.74-.82a1.55,1.55,0,0,0-.31-.63,3.3,3.3,0,0,1-1.24,1.09,5.23,5.23,0,0,1-2.2.47q-.4-.33-.39-.36a4.25,4.25,0,0,1,0-.63l0-.11c.07-.33.55-.88,1.45-1.64a5,5,0,0,1,1.93-1,.4.4,0,0,0,.28-.31c.15-1.43.27-2.37.35-2.81l.1-.5.7-.45a.54.54,0,0,1,.19,0m-3.74,6.72h.16c.53,0,1-.4,1.56-1.23a.8.8,0,0,0,.14-.29,2.9,2.9,0,0,0-1.45.93,2.44,2.44,0,0,0-.41.58" transform="translate(-11.29 -6.47)"/><path class="cls-1" d="M223.83,92H224c.45,0,.68.1.68.32a1.22,1.22,0,0,1,.05.39,1.12,1.12,0,0,1-.63.31c-.92.13-1.38.25-1.4.35s.39.38.9.53a9.24,9.24,0,0,1,1.88.6.82.82,0,0,1,.4.9c-.12.62-.77,1-1.94,1.24a5.34,5.34,0,0,1-.94.08c-1.12-.07-1.67-.2-1.63-.38a.51.51,0,0,1-.1-.43l0-.1a1,1,0,0,1,.5-.62,3.5,3.5,0,0,0,1.53.45,1.43,1.43,0,0,0,.93-.31h0a7,7,0,0,0-1.8-.59q-1.32-.42-1.2-1v-.07a2,2,0,0,1,1.45-1.4,2.89,2.89,0,0,1,1.13-.27" transform="translate(-11.29 -6.47)"/><path class="cls-1" d="M227.2,95.33h.08c.34.08.48.23.44.45v0c-.06.34-.36.62-.9.82l-.19,0c-.23,0-.38-.13-.43-.41V96a1,1,0,0,1,.57-.64Z" transform="translate(-11.29 -6.47)"/><path class="cls-1" d="M119,62.8a9.59,9.59,0,0,0-2.88,7.07V80.35a2.93,2.93,0,0,0,3.09,3.1,3.12,3.12,0,0,0,2.26-.86,3,3,0,0,0,.87-2.24V69.86a3.42,3.42,0,0,1,1-2.57,4.17,4.17,0,0,1,2.6-1.13c2.12-.19,3.18-1.23,3.18-3.14A3,3,0,0,0,126,59.94,9.64,9.64,0,0,0,119,62.8" transform="translate(-11.29 -6.47)"/><path class="cls-1" d="M96.65,55.37a3.11,3.11,0,0,0-.85,2.26V73.49a9.75,9.75,0,0,0,10,10h2.93q3.09,0,3.09-3.14a2.95,2.95,0,0,0-3.09-3.09h-2.93A3.7,3.7,0,0,1,102,73.49V66.3h6.66q3.09,0,3.09-3.14a2.93,2.93,0,0,0-3.09-3.08H102V57.63a3,3,0,0,0-3.14-3.13,3,3,0,0,0-2.23.87" transform="translate(-11.29 -6.47)"/><path class="cls-1" d="M138.81,75.58a5.44,5.44,0,0,1-1.61-4,5.51,5.51,0,0,1,5.53-5.55,5.42,5.42,0,0,1,3.94,1.62,5.37,5.37,0,0,1,1.63,4v5.58h-5.57a5.26,5.26,0,0,1-3.92-1.64m-4.45-12.34a12.09,12.09,0,0,0,0,16.79,11.32,11.32,0,0,0,8.37,3.42h8.66a5.72,5.72,0,0,0,2.26-.86,3,3,0,0,0,.88-2.25V71.67a11.86,11.86,0,0,0-20.17-8.43" transform="translate(-11.29 -6.47)"/><path class="cls-1" d="M169.57,51.48a3,3,0,0,0-.86,2.18V80.41a3,3,0,0,0,.86,2.18,3,3,0,0,0,2.23.86,3.08,3.08,0,0,0,2.26-.86,2.94,2.94,0,0,0,.88-2.23V53.71q0-3.08-3.14-3.08a3,3,0,0,0-2.23.85" transform="translate(-11.29 -6.47)"/><path class="cls-1" d="M200.85,50.44a9.57,9.57,0,0,0-7.09,2.87,9.69,9.69,0,0,0-2.86,7.14V80.3a3.13,3.13,0,0,0,.85,2.27,3,3,0,0,0,2.24.88,3,3,0,0,0,3.13-3.15v-7h4.71a3,3,0,0,0,2.23-.85,3,3,0,0,0,.86-2.25q0-3.15-3.09-3.15h-4.71V60.45a3.61,3.61,0,0,1,1.09-2.67,3.55,3.55,0,0,1,2.64-1.09h1.63a3.13,3.13,0,0,0,0-6.25Z" transform="translate(-11.29 -6.47)"/><path class="cls-1" d="M214.17,71.62a5.38,5.38,0,0,1,1.61-3.93,5.31,5.31,0,0,1,3.91-1.62,5.44,5.44,0,0,1,1.2.13l-6.66,6.3a6.4,6.4,0,0,1-.06-.88m-2.84-8.38a12.09,12.09,0,0,0,0,16.79,11.32,11.32,0,0,0,8.37,3.42h4.1a3,3,0,0,0,2.24-.88,3.09,3.09,0,0,0,.85-2.26,3,3,0,0,0-.85-2.23,3,3,0,0,0-2.24-.86h-4.1a5.53,5.53,0,0,1-1.31-.15l9.42-8.95a3.08,3.08,0,0,0,1.34-2.54,3,3,0,0,0-.93-2.13,11.93,11.93,0,0,0-16.89-.21" transform="translate(-11.29 -6.47)"/><path class="cls-1" d="M53.94,71.62a5.38,5.38,0,0,1,1.61-3.93,5.31,5.31,0,0,1,3.91-1.62,5.38,5.38,0,0,1,1.2.13L54,72.5a6.4,6.4,0,0,1-.07-.88M51.1,63.24A12.09,12.09,0,0,0,51.1,80a11.34,11.34,0,0,0,8.37,3.42h4.1a3,3,0,0,0,2.24-.88,3.09,3.09,0,0,0,.85-2.26,3,3,0,0,0-.85-2.23,3,3,0,0,0-2.24-.86h-4.1a5.6,5.6,0,0,1-1.31-.15l9.42-8.95A3,3,0,0,0,68,63.45a11.94,11.94,0,0,0-16.9-.21" transform="translate(-11.29 -6.47)"/><path class="cls-1" d="M90.1,83.45a3.42,3.42,0,0,1-2-.8,10.9,10.9,0,0,1-1.76-1.9l-4.18-5.24-4.28,5.23a11.42,11.42,0,0,1-1.76,1.93,3.09,3.09,0,0,1-1.95.78,3.64,3.64,0,0,1-2.29-.93,2.39,2.39,0,0,1-1-1.88,5.42,5.42,0,0,1,1.35-2.85L77.62,71l-4.77-5.47a4.86,4.86,0,0,1-1.38-2.94,2.39,2.39,0,0,1,.91-1.85,3.52,3.52,0,0,1,2.26-.93,3.28,3.28,0,0,1,2,.84,11.32,11.32,0,0,1,1.73,1.87l3.7,5,3.6-4.94a10.71,10.71,0,0,1,1.75-1.91,3.22,3.22,0,0,1,2-.76,3.67,3.67,0,0,1,2.3.87,2.31,2.31,0,0,1,1,1.86,3.12,3.12,0,0,1-.37,1.45,10.81,10.81,0,0,1-1,1.5L86.49,71l5.42,6.76a5.6,5.6,0,0,1,1.39,2.89,2.37,2.37,0,0,1-1,1.88A3.62,3.62,0,0,1,90.1,83.45Z" transform="translate(-11.29 -6.47)"/><path class="cls-1" d="M232.51,59.6V60h-1.1v2.87H231V60h-1.1V59.6Z" transform="translate(-11.29 -6.47)"/><path class="cls-1" d="M232.91,59.6h.63l.94,2.76.93-2.76H236v3.26h-.42V60.94c0-.07,0-.18,0-.33v-.5l-.93,2.75h-.44l-.93-2.75v.47c0,.16,0,.28,0,.36v1.92h-.42Z" transform="translate(-11.29 -6.47)"/><path class="cls-1" d="M248.89,87.32l-9.46-10.8a1.63,1.63,0,0,0-2.31-.15l-10.8,9.45a1.63,1.63,0,0,0-.15,2.31l9.45,10.8a1.63,1.63,0,0,0,2.31.16l10.8-9.46A1.64,1.64,0,0,0,248.89,87.32Zm-16.84.78a1.46,1.46,0,1,1,.13-2.06A1.45,1.45,0,0,1,232.05,88.1Zm3.16,3.61a1.46,1.46,0,1,1-1.93-2.2,1.45,1.45,0,0,1,2.06.13A1.47,1.47,0,0,1,235.21,91.71Zm3.16,3.61a1.47,1.47,0,1,1,.13-2.07A1.47,1.47,0,0,1,238.37,95.32Zm.51-12.95A1.46,1.46,0,1,1,239,80.3,1.46,1.46,0,0,1,238.88,82.37ZM242,86a1.46,1.46,0,1,1,.14-2.06A1.46,1.46,0,0,1,242,86Zm3.16,3.61a1.46,1.46,0,1,1,.14-2.06A1.47,1.47,0,0,1,245.2,89.58Z" transform="translate(-11.29 -6.47)"/><path class="cls-1" d="M253,78.34l-2.5-14.14a1.63,1.63,0,0,0-1.9-1.32l-14.14,2.5a1.63,1.63,0,0,0-1.32,1.9l1.78,10.09,2-1.79a2,2,0,0,1,2.7.18l5,5.72,7-1.24A1.63,1.63,0,0,0,253,78.34Zm-15.37-7.78a1.47,1.47,0,1,1,1.19-1.7A1.47,1.47,0,0,1,237.61,70.56Zm5.69,3.86a1.47,1.47,0,1,1,1.19-1.7A1.46,1.46,0,0,1,243.3,74.42Zm5.7,3.86a1.47,1.47,0,1,1,1.18-1.7A1.47,1.47,0,0,1,249,78.28Z" transform="translate(-11.29 -6.47)"/></svg>